<?xml version="1.0" encoding="UTF-8"?>
<svg id="dark-long" xmlns="http://www.w3.org/2000/svg" viewBox="0 0 504 71.15">
  <defs>
    <style>
      .cls-1 {
        fill: #ffcd05;
      }
    </style>
  </defs>
  <path d="M8.11,9.18h13.43c9.71,0,14.02,4.96,14.02,13.94,0,4.53-1.9,9.27-6.28,11.02,4.6,2.04,7.3,5.69,7.3,12.48,0,8.69-3.87,15.26-14.16,15.26h-14.31V9.18ZM17.16,30.79h3.29c3.43,0,6.06-2.34,6.06-6.72,0-4.89-1.9-7.45-5.91-7.45h-3.43v14.16ZM17.16,54.44h3.8c4.82,0,6.57-2.77,6.57-8.1s-2.04-8.1-7.45-8.1h-2.92v16.21Z"/>
  <path d="M49.43,61.89h-9.05V9.18h12.7c10.15,0,15.33,4.31,15.33,15.55,0,8.47-3.28,11.9-6.35,13.29l7.67,23.87h-9.2l-6.42-21.83c-1.17.15-3.07.22-4.67.22v21.61ZM49.43,32.83h3.21c4.89,0,6.72-1.82,6.72-8.1s-1.82-8.1-6.72-8.1h-3.21v16.21Z"/>
  <path d="M72.64,21.96c0-7.45,4.38-13.5,13.87-13.5s13.87,6.06,13.87,13.5v27.16c0,7.45-4.38,13.5-13.87,13.5s-13.87-6.06-13.87-13.5v-27.16ZM81.7,48.89c0,3.94,1.17,5.84,4.82,5.84s4.82-1.9,4.82-5.84v-26.72c0-3.94-1.17-5.84-4.82-5.84s-4.82,1.9-4.82,5.84v26.72Z"/>
  <path d="M123.16,26.77v-4.09c0-4.45-2.04-6.35-4.38-6.35-3.65,0-4.82,1.9-4.82,5.84v26.72c0,3.94,1.17,5.84,4.82,5.84,3.28,0,4.38-1.9,4.38-5.33v-6.35h9.05v6.06c0,7.45-4.38,13.5-13.43,13.5s-13.87-6.06-13.87-13.5v-27.16c0-7.45,4.38-13.5,13.87-13.5s13.43,6.57,13.43,14.45v3.87h-9.05Z"/>
  <path d="M136.74,61.89V9.18h9.05v19.49h.15l9.49-19.49h9.05l-9.78,19.64,11.02,33.07h-9.2l-7.37-24.53h-.15l-3.21,5.84v18.69h-9.05Z"/>
  <path class="cls-1" d="M188.93,61.89h-9.05v-21.9l-10.95-30.81h9.2l6.35,20.07h.15l6.06-20.07h9.2l-10.95,30.81v21.9Z"/>
  <path class="cls-1" d="M206.23,61.89h-8.76l9.71-52.7h11.24l9.71,52.7h-8.76l-1.61-11.68h-9.93l-1.61,11.68ZM209.15,42.32h7.3l-3.58-22.63h-.15l-3.58,22.63Z"/>
  <path class="cls-1" d="M242.44,61.89h-9.05V9.18h12.7c10.15,0,15.33,4.31,15.33,15.55,0,8.47-3.29,11.9-6.35,13.29l7.66,23.87h-9.2l-6.42-21.83c-1.17.15-3.07.22-4.67.22v21.61ZM242.44,32.83h3.21c4.89,0,6.72-1.82,6.72-8.1s-1.83-8.1-6.72-8.1h-3.21v16.21Z"/>
  <path class="cls-1" d="M269.89,9.18h13.43c9.34,0,14.31,5.11,14.31,15.91v20.88c0,10.8-4.96,15.91-14.31,15.91h-13.43V9.18ZM278.94,54.44h3.14c4.82,0,6.5-1.82,6.5-7.37v-23.07c0-5.55-1.68-7.37-6.5-7.37h-3.14v37.81Z"/>
  <path d="M315.44,61.89h-9.05V9.18h12.7c10.15,0,15.33,4.31,15.33,15.55,0,8.47-3.29,11.9-6.35,13.29l7.66,23.87h-9.2l-6.42-21.83c-1.17.15-3.07.22-4.67.22v21.61ZM315.44,32.83h3.21c4.89,0,6.72-1.82,6.72-8.1s-1.83-8.1-6.72-8.1h-3.21v16.21Z"/>
  <path d="M340.26,61.89V9.18h24.24v7.88h-15.18v13.58h11.68v7.88h-11.68v15.48h16.21v7.88h-25.26Z"/>
  <path d="M388.51,9.18h8.91l-11.02,52.7h-9.05l-11.02-52.7h8.91l6.57,36.57h.15l6.57-36.57Z"/>
  <path d="M401.07,61.89V9.18h9.05v52.7h-9.05Z"/>
  <path d="M435.96,9.18h8.91l-11.02,52.7h-9.05l-11.02-52.7h8.91l6.57,36.57h.15l6.57-36.57Z"/>
  <path d="M449.83,61.89h-8.76l9.71-52.7h11.24l9.71,52.7h-8.76l-1.61-11.68h-9.93l-1.61,11.68ZM452.75,42.32h7.3l-3.58-22.63h-.15l-3.58,22.63Z"/>
  <path d="M473.92,61.89V9.18h9.05v44.82h14.23v7.88h-23.29Z"/>
</svg>